# xmcd
# 
# Track frame offsets:
#     150
#     16892
#     36420
#     48570
#     70097
#     82150
#     99092
#     116602
#     130017
#     147185
#     161805
#     174925
#     189985
#     208680
# 
# Disc length: 3046
# 
# Revision: 8
# Processed by: cddbd v1.5.2PL0 Copyright (c) Steve Scherf et al.
# Submitted via: BonkEnc v1.0.8
# 
DISCID=bb0be40e
DTITLE=Tété - L'air de rien
DYEAR=2001
DGENRE=Blues
TTITLE0=Le meilleur des mondes
TTITLE1=Passage Brady
TTITLE2=Love love love
TTITLE3=Me ressourcer
TTITLE4=Le magicien
TTITLE5=Dodeline
TTITLE6=Le bonheur
TTITLE7=Cousin Willy
TTITLE8=L'air de rien
TTITLE9=L'abominable Hyde
TTITLE10=Honni soit
TTITLE11=Les envies
TTITLE12=Aisé
TTITLE13=Eleanor Rigby
EXTD=YEAR: 2001
EXTT0=
EXTT1=
EXTT2=
EXTT3=
EXTT4=
EXTT5=
EXTT6=
EXTT7=
EXTT8=
EXTT9=
EXTT10=
EXTT11=
EXTT12=
EXTT13=
PLAYORDER=
